{
  "video_id": "videotest",
  "filename": "videotest.mp4",
  "format": {
    "filename": "C:\\Users\\aitor\\Downloads\\videotest.mp4",
    "nb_streams": 2,
    "nb_programs": 0,
    "nb_stream_groups": 0,
    "format_name": "mov,mp4,m4a,3gp,3g2,mj2",
    "format_long_name": "QuickTime / MOV",
    "start_time": "0.000000",
    "duration": "798.371701",
    "size": "47927372",
    "bit_rate": "480251",
    "probe_score": 100,
    "tags": {
      "major_brand": "mp42",
      "minor_version": "0",
      "compatible_brands": "isommp42",
      "encoder": "Google"
    }
  },
  "streams": [
    {
      "index": 0,
      "codec_name": "h264",
      "codec_long_name": "H.264 / AVC / MPEG-4 AVC / MPEG-4 part 10",
      "profile": "Main",
      "codec_type": "video",
      "codec_tag_string": "avc1",
      "codec_tag": "0x31637661",
      "width": 640,
      "height": 360,
      "coded_width": 640,
      "coded_height": 360,
      "closed_captions": 0,
      "film_grain": 0,
      "has_b_frames": 0,
      "sample_aspect_ratio": "1:1",
      "display_aspect_ratio": "16:9",
      "pix_fmt": "yuv420p",
      "level": 30,
      "color_range": "tv",
      "color_space": "bt709",
      "color_transfer": "bt709",
      "color_primaries": "bt709",
      "chroma_location": "left",
      "field_order": "progressive",
      "refs": 1,
      "is_avc": "true",
      "nal_length_size": "4",
      "id": "0x1",
      "r_frame_rate": "25/1",
      "avg_frame_rate": "25/1",
      "time_base": "1/12800",
      "start_pts": 0,
      "start_time": "0.000000",
      "duration_ts": 10218496,
      "duration": "798.320000",
      "bit_rate": "381884",
      "bits_per_raw_sample": "8",
      "nb_frames": "19958",
      "extradata_size": 44,
      "disposition": {
        "default": 1,
        "dub": 0,
        "original": 0,
        "comment": 0,
        "lyrics": 0,
        "karaoke": 0,
        "forced": 0,
        "hearing_impaired": 0,
        "visual_impaired": 0,
        "clean_effects": 0,
        "attached_pic": 0,
        "timed_thumbnails": 0,
        "non_diegetic": 0,
        "captions": 0,
        "descriptions": 0,
        "metadata": 0,
        "dependent": 0,
        "still_image": 0
      },
      "tags": {
        "language": "und",
        "handler_name": "ISO Media file produced by Google Inc.",
        "vendor_id": "[0][0][0][0]"
      }
    },
    {
      "index": 1,
      "codec_name": "aac",
      "codec_long_name": "AAC (Advanced Audio Coding)",
      "profile": "LC",
      "codec_type": "audio",
      "codec_tag_string": "mp4a",
      "codec_tag": "0x6134706d",
      "sample_fmt": "fltp",
      "sample_rate": "44100",
      "channels": 2,
      "channel_layout": "stereo",
      "bits_per_sample": 0,
      "initial_padding": 0,
      "id": "0x2",
      "r_frame_rate": "0/0",
      "avg_frame_rate": "0/0",
      "time_base": "1/44100",
      "start_pts": 0,
      "start_time": "0.000000",
      "duration_ts": 35208192,
      "duration": "798.371701",
      "bit_rate": "96003",
      "nb_frames": "34383",
      "extradata_size": 16,
      "disposition": {
        "default": 1,
        "dub": 0,
        "original": 0,
        "comment": 0,
        "lyrics": 0,
        "karaoke": 0,
        "forced": 0,
        "hearing_impaired": 0,
        "visual_impaired": 0,
        "clean_effects": 0,
        "attached_pic": 0,
        "timed_thumbnails": 0,
        "non_diegetic": 0,
        "captions": 0,
        "descriptions": 0,
        "metadata": 0,
        "dependent": 0,
        "still_image": 0
      },
      "tags": {
        "language": "eng",
        "handler_name": "ISO Media file produced by Google Inc.",
        "vendor_id": "[0][0][0][0]"
      }
    }
  ],
  "video_stream": {
    "index": 0,
    "codec_name": "h264",
    "codec_long_name": "H.264 / AVC / MPEG-4 AVC / MPEG-4 part 10",
    "profile": "Main",
    "codec_type": "video",
    "codec_tag_string": "avc1",
    "codec_tag": "0x31637661",
    "width": 640,
    "height": 360,
    "coded_width": 640,
    "coded_height": 360,
    "closed_captions": 0,
    "film_grain": 0,
    "has_b_frames": 0,
    "sample_aspect_ratio": "1:1",
    "display_aspect_ratio": "16:9",
    "pix_fmt": "yuv420p",
    "level": 30,
    "color_range": "tv",
    "color_space": "bt709",
    "color_transfer": "bt709",
    "color_primaries": "bt709",
    "chroma_location": "left",
    "field_order": "progressive",
    "refs": 1,
    "is_avc": "true",
    "nal_length_size": "4",
    "id": "0x1",
    "r_frame_rate": "25/1",
    "avg_frame_rate": "25/1",
    "time_base": "1/12800",
    "start_pts": 0,
    "start_time": "0.000000",
    "duration_ts": 10218496,
    "duration": "798.320000",
    "bit_rate": "381884",
    "bits_per_raw_sample": "8",
    "nb_frames": "19958",
    "extradata_size": 44,
    "disposition": {
      "default": 1,
      "dub": 0,
      "original": 0,
      "comment": 0,
      "lyrics": 0,
      "karaoke": 0,
      "forced": 0,
      "hearing_impaired": 0,
      "visual_impaired": 0,
      "clean_effects": 0,
      "attached_pic": 0,
      "timed_thumbnails": 0,
      "non_diegetic": 0,
      "captions": 0,
      "descriptions": 0,
      "metadata": 0,
      "dependent": 0,
      "still_image": 0
    },
    "tags": {
      "language": "und",
      "handler_name": "ISO Media file produced by Google Inc.",
      "vendor_id": "[0][0][0][0]"
    }
  },
  "audio_stream": {
    "index": 1,
    "codec_name": "aac",
    "codec_long_name": "AAC (Advanced Audio Coding)",
    "profile": "LC",
    "codec_type": "audio",
    "codec_tag_string": "mp4a",
    "codec_tag": "0x6134706d",
    "sample_fmt": "fltp",
    "sample_rate": "44100",
    "channels": 2,
    "channel_layout": "stereo",
    "bits_per_sample": 0,
    "initial_padding": 0,
    "id": "0x2",
    "r_frame_rate": "0/0",
    "avg_frame_rate": "0/0",
    "time_base": "1/44100",
    "start_pts": 0,
    "start_time": "0.000000",
    "duration_ts": 35208192,
    "duration": "798.371701",
    "bit_rate": "96003",
    "nb_frames": "34383",
    "extradata_size": 16,
    "disposition": {
      "default": 1,
      "dub": 0,
      "original": 0,
      "comment": 0,
      "lyrics": 0,
      "karaoke": 0,
      "forced": 0,
      "hearing_impaired": 0,
      "visual_impaired": 0,
      "clean_effects": 0,
      "attached_pic": 0,
      "timed_thumbnails": 0,
      "non_diegetic": 0,
      "captions": 0,
      "descriptions": 0,
      "metadata": 0,
      "dependent": 0,
      "still_image": 0
    },
    "tags": {
      "language": "eng",
      "handler_name": "ISO Media file produced by Google Inc.",
      "vendor_id": "[0][0][0][0]"
    }
  },
  "duration_seconds": 798.371701,
  "file_size_bytes": 47927372,
  "width": 640,
  "height": 360,
  "frame_rate": 25.0,
  "total_frames": 19958,
  "audio_codec": "aac",
  "audio_channels": 2,
  "audio_sample_rate": 44100
}